<svg width="100" height="24" viewBox="0 0 100 24" fill="none" xmlns="http://www.w3.org/2000/svg">
<g clip-path="url(#clip0_1078_44)">
<path d="M25.3199 7.13309H21.7235V4.69867H31.5163V7.13309H27.9302V16.7282H25.3199V7.13309ZM29.5922 12.1376C29.5922 9.50492 31.4301 7.33828 34.0748 7.33828C37.0988 7.33828 38.4816 9.7275 38.4816 12.3428C38.4816 12.548 38.4816 12.7879 38.4471 13.0383H32.1404C32.218 13.5642 32.4885 14.0416 32.8985 14.3759C33.3085 14.7102 33.828 14.877 34.3541 14.8433C34.7659 14.848 35.1741 14.7656 35.5524 14.6015C35.9307 14.4374 36.2708 14.1951 36.5506 13.8904L38.0195 15.2154C37.5804 15.7743 37.0169 16.2211 36.3747 16.5196C35.7325 16.8181 35.0297 16.9598 34.3231 16.9334C31.6025 16.9334 29.5957 14.9928 29.5957 12.1376H29.5922ZM35.9713 11.3968C35.8196 10.2283 35.1437 9.43885 34.0645 9.43885C32.9852 9.43885 32.3094 10.2109 32.1059 11.3968H35.9713ZM39.6194 7.51217H42.1849V8.81981C42.778 8.04427 43.5365 7.33828 44.8365 7.33828C46.7778 7.33828 47.9088 8.64592 47.9088 10.7604V16.7282H45.3434V11.5881C45.3434 10.35 44.771 9.71359 43.7883 9.71359C42.8055 9.71359 42.1849 10.35 42.1849 11.5881V16.7282H39.6194V7.51217ZM48.9639 12.1028C48.9639 9.02499 50.9397 7.33828 53.081 7.33828C53.6268 7.32844 54.1671 7.44941 54.6574 7.69125C55.1478 7.9331 55.5742 8.2889 55.9016 8.72939V4.177H58.4671V16.7317H55.9016V15.4067C55.5933 15.8743 55.1734 16.2562 54.6806 16.5175C54.1878 16.7788 53.6378 16.911 53.081 16.9021C50.9708 16.9021 48.9639 15.2154 48.9639 12.1028V12.1028ZM55.9361 12.1028C55.9361 10.5726 54.9396 9.55709 53.7396 9.55709C52.5397 9.55709 51.5294 10.5552 51.5294 12.1376C51.5294 13.72 52.5431 14.6833 53.7396 14.6833C54.9362 14.6833 55.9361 13.6678 55.9361 12.1028ZM59.2291 12.1376C59.2291 9.50492 61.0704 7.33828 63.7117 7.33828C66.7358 7.33828 68.1185 9.7275 68.1185 12.3428C68.1185 12.548 68.1012 12.7879 68.084 13.0383H61.7876C61.866 13.5639 62.1368 14.0408 62.5465 14.3749C62.9563 14.709 63.4754 14.8762 64.0014 14.8433C64.4143 14.849 64.8238 14.7671 65.2034 14.6029C65.583 14.4388 65.9241 14.196 66.2047 13.8904L67.6736 15.2154C67.2345 15.7743 66.671 16.2211 66.0289 16.5196C65.3867 16.8181 64.6838 16.9598 63.9772 16.9334C61.2601 16.9334 59.2498 14.9928 59.2498 12.1376H59.2291ZM65.6116 11.3968C65.4599 10.2283 64.7841 9.43885 63.7014 9.43885C62.6187 9.43885 61.9463 10.2109 61.7428 11.3968H65.6116ZM69.2564 7.51217H71.8218V9.36929C72.3459 8.09643 73.201 7.28264 74.7113 7.33828V10.0892H74.5769C72.87 10.0892 71.8183 11.1325 71.8183 13.3374V16.7421H69.2529V7.51217H69.2564Z" fill="#FF3214"/>
<path d="M73.5391 16.7278V15.1141H75.1252V16.7278H73.5391ZM76.2976 7.83868H77.5837V9.62625C78.2941 8.56205 79.3078 7.65088 80.9285 7.65088C83.0215 7.65088 85.0973 9.33411 85.0973 12.2937C85.0973 15.1976 83.0284 16.9191 80.9285 16.9191C80.2573 16.9174 79.5977 16.7427 79.0123 16.4115C78.427 16.0804 77.9352 15.6039 77.5837 15.0272V19.4787H76.2838L76.2976 7.83868ZM83.7766 12.2763C83.7766 10.1896 82.3594 8.83679 80.7043 8.83679C79.0492 8.83679 77.5493 10.2279 77.5493 12.2937C77.5493 14.3595 79.0837 15.7332 80.7043 15.7332C82.3939 15.7332 83.7766 14.4603 83.7766 12.2763ZM86.411 7.83868H87.711V10.1583C88.3523 8.6803 89.6213 7.61262 91.2764 7.68218V9.10806H91.1729C89.2661 9.10806 87.7248 10.4992 87.7248 13.184V16.7278H86.4248V7.83868H86.411ZM90.8936 12.2937C90.9039 11.3869 91.1802 10.5034 91.6877 9.75478C92.1952 9.00617 92.9113 8.42595 93.7454 8.08732C94.5795 7.74869 95.4944 7.66684 96.3746 7.85208C97.2548 8.03733 98.0609 8.48137 98.6912 9.12819C99.3215 9.775 99.7477 10.5956 99.916 11.4865C100.084 12.3773 99.9873 13.2985 99.6371 14.1338C99.2869 14.9691 98.6993 15.681 97.9483 16.1798C97.1974 16.6786 96.3168 16.9419 95.4176 16.9365C94.8262 16.9392 94.2401 16.8245 93.6927 16.5988C93.1453 16.373 92.6473 16.0408 92.2272 15.621C91.8071 15.2011 91.4732 14.702 91.2443 14.152C91.0155 13.6019 90.8964 13.0119 90.8936 12.4154V12.2937ZM98.6589 12.2937C98.6589 10.3844 97.2589 8.81593 95.4176 8.81593C93.5763 8.81593 92.2281 10.3809 92.2281 12.2937C92.2281 14.2065 93.6073 15.7506 95.4521 15.7506C97.2969 15.7506 98.6623 14.203 98.6623 12.2937H98.6589Z" fill="#909090"/>
<path d="M3.10334 4.07268C3.16078 3.98327 3.23869 3.90911 3.33051 3.85645C3.42233 3.80379 3.52536 3.77418 3.63091 3.77011H14.3547C14.3547 3.77011 14.3823 3.79446 14.3961 3.79446L16.8098 1.92343C16.4761 1.619 16.0856 1.3847 15.6611 1.23422C15.2366 1.08375 14.7866 1.02011 14.3374 1.04703H3.61367C1.65167 1.04703 0 2.40683 0 4.42741V6.79924L3.10334 4.07268ZM14.8857 8.21121L14.8271 15.4693V17.4481L13.4857 16.1162H3.61367C3.26885 16.1162 3.24816 15.8171 3.24816 15.4693V7.68955L0 8.12774V15.4693C0 17.4899 1.65512 18.8358 3.61367 18.8358H12.3823L17.9304 24.0002L17.858 4.80649L14.8857 8.21121Z" fill="#B1B1B1"/>
<path d="M0 8.97584L3.10334 11.8276V7.6543L0 8.07858V8.97584Z" fill="#605958"/>
<path d="M8.93762 14.6113L0 8.14967L2.63094 5.80218L9.02727 10.4554L20.3441 0.00476074L8.93762 14.6113Z" fill="#FF3214"/>
</g>
<defs>
<clipPath id="clip0_1078_44">
<rect width="100" height="24" fill="white"/>
</clipPath>
</defs>
</svg>
