<svg width="170" height="40" viewBox="0 0 170 40" fill="none" xmlns="http://www.w3.org/2000/svg">
<g clip-path="url(#clip0_1078_80)">
<path d="M42.895 11.8881H36.8022V7.83074H53.3923V11.8881H47.3171V27.88H42.895V11.8881ZM50.1327 20.2289C50.1327 15.8412 53.2463 12.2301 57.7268 12.2301C62.8499 12.2301 65.1923 16.2121 65.1923 20.5709C65.1923 20.9129 65.1923 21.3128 65.1339 21.7302H54.4497C54.5811 22.6067 55.0395 23.4023 55.734 23.9594C56.4286 24.5166 57.3086 24.7946 58.2 24.7384C58.8976 24.7463 59.5892 24.609 60.2301 24.3355C60.871 24.0619 61.447 23.6582 61.9211 23.1503L64.4096 25.3586C63.6656 26.2902 62.711 27.0349 61.6231 27.5323C60.5352 28.0298 59.3445 28.266 58.1474 28.222C53.5384 28.222 50.1386 24.9877 50.1386 20.2289H50.1327ZM60.9397 18.9943C60.6826 17.0468 59.5377 15.731 57.7093 15.731C55.8809 15.731 54.7359 17.0178 54.3913 18.9943H60.9397ZM67.1201 12.5199H71.4662V14.6993C72.471 13.4067 73.7561 12.2301 75.9584 12.2301C79.2472 12.2301 81.1632 14.4095 81.1632 17.9336V27.88H76.8171V19.3131C76.8171 17.2497 75.8474 16.189 74.1825 16.189C72.5177 16.189 71.4662 17.2497 71.4662 19.3131V27.88H67.1201V12.5199ZM82.9508 20.171C82.9508 15.0413 86.298 12.2301 89.9256 12.2301C90.8502 12.2137 91.7655 12.4153 92.5962 12.8184C93.4269 13.2215 94.1493 13.8145 94.704 14.5486V6.9613H99.0502V27.8858H94.704V25.6774C94.1816 26.4567 93.4704 27.0933 92.6354 27.5288C91.8005 27.9643 90.8687 28.1847 89.9256 28.1698C86.3506 28.1698 82.9508 25.3586 82.9508 20.171V20.171ZM94.7624 20.171C94.7624 17.6206 93.0742 15.9281 91.0414 15.9281C89.0085 15.9281 87.2969 17.5916 87.2969 20.2289C87.2969 22.8662 89.0143 24.4718 91.0414 24.4718C93.0684 24.4718 94.7624 22.7793 94.7624 20.171ZM100.341 20.2289C100.341 15.8412 103.461 12.2301 107.935 12.2301C113.058 12.2301 115.401 16.2121 115.401 20.5709C115.401 20.9129 115.372 21.3128 115.342 21.7302H104.676C104.808 22.6061 105.267 23.4009 105.961 23.9578C106.656 24.5147 107.535 24.7932 108.426 24.7384C109.126 24.7479 109.819 24.6114 110.462 24.3378C111.105 24.0642 111.683 23.6596 112.159 23.1503L114.647 25.3586C113.903 26.2902 112.949 27.0349 111.861 27.5323C110.773 28.0298 109.582 28.266 108.385 28.222C103.782 28.222 100.376 24.9877 100.376 20.2289H100.341ZM111.154 18.9943C110.897 17.0468 109.752 15.731 107.918 15.731C106.083 15.731 104.944 17.0178 104.6 18.9943H111.154ZM117.328 12.5199H121.675V15.6151C122.563 13.4937 124.011 12.1374 126.57 12.2301V16.8149H126.342C123.45 16.8149 121.669 18.5538 121.669 22.2287V27.9032H117.323V12.5199H117.328Z" fill="#FF3214"/>
<path d="M124.583 27.8801V25.1906H127.271V27.8801H124.583ZM129.257 13.0648H131.436V16.0441C132.639 14.2705 134.356 12.7518 137.102 12.7518C140.648 12.7518 144.164 15.5572 144.164 20.4898C144.164 25.3297 140.66 28.1989 137.102 28.1989C135.965 28.196 134.848 27.9048 133.856 27.3529C132.864 26.8011 132.031 26.0069 131.436 25.0457V32.4649H129.233L129.257 13.0648ZM141.927 20.4609C141.927 16.9831 139.526 14.7284 136.722 14.7284C133.918 14.7284 131.377 17.0469 131.377 20.4898C131.377 23.9328 133.977 26.2223 136.722 26.2223C139.585 26.2223 141.927 24.1009 141.927 20.4609ZM146.39 13.0648H148.592V16.9309C149.679 14.4675 151.829 12.6881 154.633 12.804V15.1805H154.457C151.227 15.1805 148.616 17.499 148.616 21.9737V27.8801H146.413V13.0648H146.39ZM153.984 20.4898C154.002 18.9785 154.47 17.506 155.329 16.2583C156.189 15.0107 157.402 14.0436 158.815 13.4792C160.229 12.9149 161.778 12.7784 163.27 13.0872C164.761 13.3959 166.126 14.136 167.194 15.214C168.262 16.292 168.984 17.6597 169.269 19.1445C169.554 20.6292 169.39 22.1645 168.797 23.5567C168.203 24.9488 167.208 26.1354 165.936 26.9668C164.663 27.7981 163.172 28.2369 161.648 28.2279C160.646 28.2324 159.654 28.0412 158.726 27.665C157.799 27.2888 156.955 26.735 156.243 26.0353C155.532 25.3356 154.966 24.5036 154.578 23.587C154.191 22.6703 153.989 21.6868 153.984 20.6927V20.4898ZM167.139 20.4898C167.139 17.3077 164.768 14.6936 161.648 14.6936C158.529 14.6936 156.245 17.3019 156.245 20.4898C156.245 23.6778 158.582 26.2513 161.707 26.2513C164.832 26.2513 167.145 23.672 167.145 20.4898H167.139Z" fill="#909090"/>
<path d="M5.25743 6.78739C5.35473 6.63838 5.48673 6.51478 5.64228 6.42702C5.79783 6.33925 5.97238 6.2899 6.15119 6.28312H24.3185C24.3185 6.28312 24.3652 6.32369 24.3886 6.32369L28.4777 3.2053C27.9124 2.69792 27.2508 2.30742 26.5317 2.05663C25.8125 1.80584 25.0502 1.69977 24.2893 1.74464H6.12198C2.79812 1.74464 0 4.01098 0 7.37861V11.3317L5.25743 6.78739ZM25.2181 13.6849L25.1188 25.7817V29.0798L22.8464 26.8598H6.12198C5.53782 26.8598 5.50277 26.3614 5.50277 25.7817V12.8155L0 13.5458V25.7817C0 29.1494 2.80396 31.3925 6.12198 31.3925H20.9771L30.3762 40L30.2536 8.0104L25.2181 13.6849Z" fill="#B1B1B1"/>
<path d="M0 14.9601L5.25742 19.7131V12.7576L0 13.4647V14.9601Z" fill="#605958"/>
<path d="M15.1414 24.3515L0 13.582L4.45713 9.66957L15.2933 17.425L34.4653 0.00720215L15.1414 24.3515Z" fill="#FF3214"/>
</g>
<defs>
<clipPath id="clip0_1078_80">
<rect width="169.412" height="40" fill="white"/>
</clipPath>
</defs>
</svg>
