<svg width="120" height="28" viewBox="0 0 120 28" fill="none" xmlns="http://www.w3.org/2000/svg">
<path d="M30.1315 8.31832H25.8516V5.47762H37.5054V8.31832H33.2378V19.5148H30.1315V8.31832ZM35.2157 14.158C35.2157 11.086 37.4028 8.55775 40.5502 8.55775C44.1489 8.55775 45.7944 11.3457 45.7944 14.3974C45.7944 14.6369 45.7944 14.9169 45.7534 15.2091H38.2481C38.3405 15.8227 38.6624 16.3798 39.1503 16.7698C39.6382 17.1599 40.2564 17.3545 40.8825 17.3152C41.3726 17.3207 41.8584 17.2246 42.3086 17.0331C42.7588 16.8416 43.1634 16.5589 43.4965 16.2033L45.2445 17.7495C44.7219 18.4017 44.0514 18.923 43.2871 19.2713C42.5229 19.6196 41.6865 19.785 40.8456 19.7542C37.608 19.7542 35.2198 17.4897 35.2198 14.158H35.2157ZM42.8071 13.2936C42.6265 11.9301 41.8222 11.0089 40.5379 11.0089C39.2535 11.0089 38.4492 11.9098 38.2071 13.2936H42.8071ZM47.1485 8.76066H50.2015V10.2865C50.9073 9.38156 51.8101 8.55775 53.3571 8.55775C55.6673 8.55775 57.0133 10.0836 57.0133 12.551V19.5148H53.9603V13.5168C53.9603 12.0721 53.2791 11.3295 52.1096 11.3295C50.9401 11.3295 50.2015 12.0721 50.2015 13.5168V19.5148H47.1485V8.76066ZM58.2689 14.1174C58.2689 10.526 60.6202 8.55775 63.1684 8.55775C63.8179 8.54627 64.4609 8.68743 65.0444 8.96963C65.628 9.25183 66.1354 9.66701 66.5251 10.181V4.8689H69.5781V19.5188H66.5251V17.9727C66.1581 18.5183 65.6585 18.964 65.072 19.2689C64.4855 19.5738 63.831 19.7281 63.1684 19.7177C60.6571 19.7177 58.2689 17.7495 58.2689 14.1174ZM66.5661 14.1174C66.5661 12.3318 65.3802 11.1469 63.9522 11.1469C62.5242 11.1469 61.3219 12.3115 61.3219 14.158C61.3219 16.0045 62.5283 17.1286 63.9522 17.1286C65.3761 17.1286 66.5661 15.9436 66.5661 14.1174ZM70.4849 14.158C70.4849 11.086 72.6762 8.55775 75.8194 8.55775C79.4182 8.55775 81.0636 11.3457 81.0636 14.3974C81.0636 14.6369 81.0431 14.9169 81.0226 15.2091H73.5297C73.6229 15.8223 73.9451 16.3788 74.4328 16.7687C74.9205 17.1586 75.5382 17.3536 76.1641 17.3152C76.6555 17.3219 77.1429 17.2263 77.5946 17.0348C78.0463 16.8432 78.4523 16.5599 78.7862 16.2033L80.5343 17.7495C80.0117 18.4017 79.3411 18.923 78.5769 19.2713C77.8127 19.6196 76.9763 19.785 76.1354 19.7542C72.9019 19.7542 70.5095 17.4897 70.5095 14.158H70.4849ZM78.0804 13.2936C77.8999 11.9301 77.0956 11.0089 75.8071 11.0089C74.5186 11.0089 73.7184 11.9098 73.4763 13.2936H78.0804ZM82.4178 8.76066H85.4708V10.9277C86.0945 9.44243 87.1121 8.49282 88.9095 8.55775V11.7677H88.7494C86.7182 11.7677 85.4667 12.9852 85.4667 15.5581V19.531H82.4137V8.76066H82.4178Z" fill="#FF3214"/>
<path d="M87.5156 19.5146V17.6316H89.4032V19.5146H87.5156ZM90.7984 9.14199H92.329V11.2279C93.1743 9.98609 94.3807 8.92285 96.3093 8.92285C98.8001 8.92285 101.27 10.887 101.27 14.3405C101.27 17.729 98.8083 19.7378 96.3093 19.7378C95.5106 19.7358 94.7257 19.5319 94.0291 19.1456C93.3324 18.7592 92.7472 18.2031 92.329 17.5302V22.7246H90.782L90.7984 9.14199ZM99.6988 14.3202C99.6988 11.8853 98.0123 10.3067 96.0426 10.3067C94.073 10.3067 92.2879 11.9299 92.2879 14.3405C92.2879 16.751 94.114 18.354 96.0426 18.354C98.0533 18.354 99.6988 16.8687 99.6988 14.3202ZM102.834 9.14199H104.381V11.8488C105.144 10.1241 106.654 8.87821 108.624 8.95937V10.6232H108.501C106.232 10.6232 104.397 12.2465 104.397 15.3794V19.5146H102.85V9.14199H102.834ZM108.168 14.3405C108.181 13.2823 108.509 12.2514 109.113 11.3779C109.717 10.5043 110.569 9.82727 111.562 9.43213C112.555 9.03699 113.643 8.94148 114.691 9.15764C115.738 9.37379 116.698 9.89194 117.448 10.6467C118.198 11.4015 118.705 12.359 118.905 13.3985C119.106 14.4381 118.99 15.513 118.573 16.4877C118.157 17.4624 117.457 18.2931 116.564 18.8752C115.67 19.4572 114.622 19.7645 113.552 19.7581C112.848 19.7613 112.151 19.6274 111.499 19.364C110.848 19.1006 110.255 18.7129 109.755 18.223C109.255 17.7331 108.858 17.1507 108.586 16.5089C108.313 15.8671 108.172 15.1785 108.168 14.4825V14.3405ZM117.409 14.3405C117.409 12.1126 115.743 10.2823 113.552 10.2823C111.361 10.2823 109.756 12.1085 109.756 14.3405C109.756 16.5725 111.398 18.3743 113.593 18.3743C115.788 18.3743 117.413 16.5684 117.413 14.3405H117.409Z" fill="#909090"/>
<path d="M3.69312 4.74684C3.76147 4.64251 3.85419 4.55597 3.96346 4.49453C4.07273 4.43308 4.19534 4.39852 4.32094 4.39378H17.0827C17.0827 4.39378 17.1155 4.42218 17.132 4.42218L20.0044 2.2389C19.6073 1.88367 19.1425 1.61027 18.6374 1.43468C18.1322 1.25909 17.5967 1.18483 17.0622 1.21625H4.30043C1.96556 1.21625 0 2.80298 0 5.16077V7.92842L3.69312 4.74684ZM17.7146 9.57603L17.6449 18.0454V20.3545L16.0486 18.8002H4.30043C3.89008 18.8002 3.86546 18.4512 3.86546 18.0454V8.96731L0 9.47864V18.0454C0 20.4032 1.96966 21.9737 4.30043 21.9737H14.7355L21.338 28L21.2518 5.60311L17.7146 9.57603Z" fill="#B1B1B1"/>
<path d="M0 10.4691L3.69311 13.7968V8.927L0 9.4221V10.4691Z" fill="#605958"/>
<path d="M10.6362 17.0442L0 9.50418L3.13094 6.76493L10.7429 12.1947L24.2104 0L10.6362 17.0442Z" fill="#FF3214"/>
</svg>
